<?xml version="1.0" standalone="no"?>
<!DOCTYPE svg PUBLIC "-//W3C//DTD SVG 20010904//EN"
 "http://www.w3.org/TR/2001/REC-SVG-20010904/DTD/svg10.dtd">
<svg version="1.0" xmlns="http://www.w3.org/2000/svg"
 width="500.000000pt" height="500.000000pt" viewBox="0 0 500.000000 500.000000"
 preserveAspectRatio="xMidYMid meet">
<metadata>
Created by potrace 1.11, written by Peter Selinger 2001-2013
</metadata>
<g transform="translate(0.000000,500.000000) scale(0.100000,-0.100000)"
fill="#000000" stroke="none">
<path d="M60 2950 c0 -1034 3 -1300 13 -1300 6 0 59 7 117 15 58 8 111 15 118
15 9 0 12 -51 12 -225 l0 -224 27 4 c16 3 993 125 2173 270 1180 146 2155 268
2168 270 l22 5 0 224 0 223 120 13 120 13 0 998 0 999 -2445 0 -2445 0 0
-1300z m3096 1253 c-3 -10 -19 -160 -36 -333 -16 -173 -33 -336 -36 -362 l-6
-47 -49 -10 c-28 -6 -60 -11 -72 -11 l-23 0 33 338 c17 185 36 357 40 382 8
44 9 45 53 51 88 12 102 11 96 -8z m-306 -43 c38 -20 51 -126 29 -232 -8 -36
-22 -63 -44 -85 -29 -29 -31 -33 -14 -38 29 -10 33 -49 20 -190 -20 -209 -12
-192 -87 -201 -36 -3 -67 -4 -70 -1 -3 3 1 75 9 159 13 128 13 155 2 167 -32
33 -41 7 -58 -164 -10 -109 -20 -171 -28 -176 -16 -9 -128 -23 -135 -16 -5 5
66 748 72 755 5 7 179 29 232 31 29 0 62 -3 72 -9z m-424 -77 c-4 -27 -18
-160 -32 -297 -13 -137 -27 -261 -31 -275 -25 -108 -118 -181 -230 -181 -73 0
-123 55 -123 137 -1 64 52 597 60 606 7 9 132 29 138 22 2 -2 -8 -120 -23
-263 -34 -335 -31 -385 20 -348 16 12 22 51 48 317 17 167 31 305 31 306 1 2
50 9 140 22 5 0 6 -20 2 -46z m-460 -65 c-3 -29 -6 -63 -6 -75 0 -18 -7 -23
-45 -29 -35 -5 -46 -11 -50 -28 -2 -11 -16 -149 -31 -307 l-27 -285 -71 -11
c-39 -6 -73 -9 -75 -7 -5 4 46 538 56 584 4 25 3 25 -42 22 l-47 -4 7 68 c4
38 10 72 14 76 3 3 74 15 156 26 83 11 154 20 159 21 5 0 6 -23 2 -51z m-421
-20 c-3 -10 -75 -716 -75 -740 0 -8 -129 -30 -139 -24 -4 3 -14 70 -21 148
-19 204 -24 212 -39 52 -20 -230 -12 -210 -89 -222 -36 -6 -68 -9 -72 -7 -4 2
62 726 70 762 0 1 31 5 70 9 38 3 73 7 77 8 7 1 29 -210 32 -298 2 -58 9 -19
21 104 20 226 15 208 63 213 92 8 106 7 102 -5z m-559 -83 c14 -9 33 -33 41
-53 15 -34 14 -55 -5 -267 -25 -257 -30 -282 -71 -346 -38 -61 -99 -91 -183
-92 -57 0 -63 2 -93 35 -19 21 -34 50 -38 74 -4 21 4 143 17 271 26 257 39
302 103 350 67 51 174 64 229 28z m-463 -65 c84 -66 47 -354 -53 -413 -16 -10
-52 -22 -81 -27 -29 -6 -54 -11 -55 -13 -2 -1 -10 -67 -18 -146 -8 -79 -17
-145 -19 -148 -7 -6 -137 -27 -141 -22 -5 7 71 749 78 757 9 9 146 29 212 31
38 1 58 -4 77 -19z m4184 -384 c-3 -8 -9 -53 -13 -100 -4 -47 -7 -86 -8 -86 0
0 -45 -7 -99 -14 -54 -8 -100 -16 -102 -18 -8 -8 -16 -198 -9 -198 5 0 46 6
92 14 45 7 84 11 86 7 2 -3 -1 -47 -7 -98 -12 -104 -4 -97 -119 -108 -37 -4
-72 -12 -77 -19 -5 -6 -12 -51 -15 -101 -4 -49 -10 -99 -13 -109 -6 -21 -19
-21 160 0 l54 6 -8 -53 c-4 -30 -8 -75 -8 -101 -1 -27 -2 -48 -3 -48 -6 0
-305 -40 -360 -48 l-58 -9 1 41 c0 65 94 994 100 1001 6 6 330 51 383 54 21 1
27 -3 23 -13z m-558 -93 c-5 -21 -57 -258 -115 -528 -58 -269 -107 -491 -107
-491 -4 -3 -272 -41 -275 -39 -5 4 -23 860 -20 945 l3 85 55 7 c30 3 72 9 93
12 l37 6 1 -282 c1 -415 5 -424 57 -138 52 281 81 433 85 435 3 4 139 22 168
24 26 1 27 0 18 -36z m-653 -75 c-3 -13 -26 -237 -51 -498 -25 -261 -48 -485
-50 -496 -4 -18 -16 -24 -72 -33 -136 -23 -123 -25 -123 17 1 53 96 1001 101
1007 6 5 123 22 168 24 30 1 33 -1 27 -21z m-330 -40 c-3 -13 -9 -58 -12 -100
l-7 -77 -46 -6 c-25 -4 -53 -7 -61 -8 -12 -2 -22 -78 -56 -420 -22 -229 -43
-419 -45 -421 -8 -7 -189 -30 -194 -24 -5 5 40 489 71 779 l7 56 -58 -9 c-32
-5 -59 -7 -62 -5 -5 6 16 190 23 196 6 6 368 58 418 60 25 1 28 -2 22 -21z
m-636 -96 c34 -25 49 -73 49 -158 2 -138 -31 -243 -89 -285 l-30 -22 23 -11
c49 -25 52 -50 27 -290 -12 -122 -25 -224 -29 -228 -8 -9 -179 -33 -186 -26
-4 3 3 102 15 219 11 116 19 218 16 226 -4 10 -64 20 -67 11 0 -2 -11 -105
-23 -231 -13 -125 -26 -230 -29 -234 -10 -9 -188 -35 -195 -28 -8 8 87 1005
97 1025 6 11 52 21 167 37 174 24 216 23 254 -5z m-707 -73 c47 -25 76 -62 88
-115 10 -44 8 -96 -15 -331 -15 -153 -32 -303 -37 -333 -34 -172 -149 -273
-313 -272 -104 0 -155 43 -176 148 -13 71 43 645 71 720 45 119 157 193 292
194 38 0 78 -5 90 -11z m-622 -95 c81 -42 99 -248 38 -432 -36 -109 -100 -162
-219 -181 -35 -6 -65 -12 -68 -15 -2 -3 -13 -94 -24 -203 -11 -109 -21 -199
-23 -201 -5 -6 -189 -31 -193 -27 -4 4 81 904 94 1001 l6 41 111 15 c153 21
241 22 278 2z m-648 -81 c18 -10 40 -35 50 -55 23 -46 35 -172 18 -191 -6 -8
-37 -17 -69 -20 -31 -4 -74 -10 -94 -13 l-38 -7 0 51 c0 56 -9 67 -46 58 -29
-8 -47 -47 -37 -84 3 -14 52 -71 108 -126 127 -126 140 -152 140 -271 -1 -239
-113 -378 -304 -380 -42 0 -88 3 -103 8 -42 11 -78 67 -88 134 -10 71 3 212
20 223 7 4 44 11 84 14 39 4 79 9 90 13 17 5 18 0 11 -68 -10 -93 -9 -109 8
-126 11 -11 19 -12 40 -2 29 13 37 34 37 105 0 64 -22 99 -130 209 -91 92
-112 134 -112 222 1 206 138 342 330 328 29 -2 67 -12 85 -22z"/>
<path d="M2680 3996 c0 -13 -3 -44 -6 -70 -6 -42 -5 -46 14 -46 31 0 52 38 52
92 0 47 -1 48 -30 48 -25 0 -30 -4 -30 -24z"/>
<path d="M844 3782 c-6 -4 -14 -16 -17 -27 -11 -34 -48 -436 -42 -446 10 -16
44 -10 54 10 13 23 55 435 47 456 -6 16 -24 19 -42 7z"/>
<path d="M355 3635 c-4 -47 -4 -89 -1 -93 10 -9 39 12 54 39 7 13 11 49 10 79
-3 51 -5 55 -30 58 -26 3 -26 3 -33 -83z"/>
<path d="M2297 2973 c-2 -4 -8 -49 -11 -99 l-7 -91 31 5 c45 6 63 41 64 120
l1 67 -37 3 c-20 2 -38 -1 -41 -5z"/>
<path d="M1645 2885 c-14 -13 -25 -30 -25 -38 0 -8 -12 -130 -26 -271 -14
-141 -24 -276 -22 -299 3 -39 5 -42 33 -42 22 0 33 7 42 25 12 26 63 499 63
588 0 36 -4 52 -16 56 -22 9 -22 9 -49 -19z"/>
<path d="M986 2753 c-22 -215 -24 -208 34 -178 35 18 51 67 51 155 1 73 -4 80
-45 80 -33 0 -33 0 -40 -57z"/>
</g>
</svg>
